HIERARCHY
ROOT Hips
{
	OFFSET 0.000000 88.474243 0.000000
	CHANNELS 6 Xposition Yposition Zposition Zrotation Yrotation Xrotation 
	JOINT Hips_Spine
	{
		OFFSET 0.000000 0.000000 0.000000
		CHANNELS 3 Zrotation Yrotation Xrotation
		JOINT Spine
		{
			OFFSET 0.005100 8.711998 -0.691000
			CHANNELS 3 Zrotation Yrotation Xrotation
			JOINT Spine1
			{
				OFFSET -0.009200 8.660301 -1.275000
				CHANNELS 3 Zrotation Yrotation Xrotation
				JOINT Spine2
				{
					OFFSET 0.006300 9.852501 -1.857000
					CHANNELS 3 Zrotation Yrotation Xrotation
					JOINT Spine2_Neck
					{
						OFFSET 0.000000 0.000000 0.000000
						CHANNELS 3 Zrotation Yrotation Xrotation
						JOINT Neck
						{
							OFFSET 0.016300 11.420799 -0.263300
							CHANNELS 3 Zrotation Yrotation Xrotation
							End Site #name: Head
							{
								OFFSET -0.019200 9.262405 2.362500
							}
						}
					}
					JOINT Spine2_LeftShoulder
					{
						OFFSET 0.000000 0.000000 0.000000
						CHANNELS 3 Zrotation Yrotation Xrotation
						JOINT LeftShoulder
						{
							OFFSET 5.616900 6.732201 -0.345700
							CHANNELS 3 Zrotation Yrotation Xrotation
							JOINT LeftArm
							{
								OFFSET 10.664888 -0.183372 -2.440700
								CHANNELS 3 Zrotation Yrotation Xrotation
								JOINT LeftForeArm
								{
									OFFSET 27.459126 0.000000 0.000000
									CHANNELS 3 Zrotation Yrotation Xrotation
									End Site #name: LeftHand
									{
										OFFSET 21.306858 0.000000 0.000000
									}
								}
							}
						}
					}
					JOINT Spine2_RightShoulder
					{
						OFFSET 0.000000 0.000000 0.000000
						CHANNELS 3 Zrotation Yrotation Xrotation
						JOINT RightShoulder
						{
							OFFSET -5.580300 6.737503 -0.344400
							CHANNELS 3 Zrotation Yrotation Xrotation
							JOINT RightArm
							{
								OFFSET -10.679335 -0.188484 -2.383900
								CHANNELS 3 Zrotation Yrotation Xrotation
								JOINT RightForeArm
								{
									OFFSET -27.503529 0.000000 0.000000
									CHANNELS 3 Zrotation Yrotation Xrotation
									End Site #name: RightHand
									{
										OFFSET -21.306808 0.000000 0.000000
									}
								}
							}
						}
					}
				}
			}
		}
	}
	JOINT Hips_LeftUpLeg
	{
		OFFSET 0.000000 0.000000 0.000000
		CHANNELS 3 Zrotation Yrotation Xrotation
		JOINT LeftUpLeg
		{
			OFFSET 6.857700 -6.739601 0.312100
			CHANNELS 3 Zrotation Yrotation Xrotation
			JOINT LeftLeg
			{
				OFFSET -0.367590 -34.731552 -4.572400
				CHANNELS 3 Zrotation Yrotation Xrotation
				End Site #name: LeftFoot
				{
					OFFSET 0.367590 -34.656704 -6.067400
				}
			}
		}
	}
	JOINT Hips_RightUpLeg
	{
		OFFSET 0.000000 0.000000 0.000000
		CHANNELS 3 Zrotation Yrotation Xrotation
		JOINT RightUpLeg
		{
			OFFSET -6.876100 -6.733299 0.301000
			CHANNELS 3 Zrotation Yrotation Xrotation
			JOINT RightLeg
			{
				OFFSET 0.347353 -34.795158 -4.515900
				CHANNELS 3 Zrotation Yrotation Xrotation
				End Site #name: RightFoot
				{
					OFFSET -0.347353 -34.589367 -6.070300
				}
			}
		}
	}
}
MOTION
Frames: 16
Frame Time: 0.041667
0.000000 -0.000000 0.000000 1.811845 -40.009112 -14.232557 0.000000 0.000000 0.000000 -0.138358 -0.022576 7.991796 -0.751061 0.090380 16.413689 0.000000 0.000000 0.000000 -0.746214 0.018727 16.414597 0.892953 7.474598 0.480496 -0.746214 0.018727 16.414597 4.169960 -2.875183 -37.740864 -52.769736 -38.911396 -17.556860 0.000019 -64.995786 -0.000048 -0.746214 0.018727 16.414597 -1.936055 -12.979854 -40.206102 97.215263 37.259070 63.094982 -179.999983 81.557085 -179.999976 0.000000 0.000000 0.000000 18.253424 47.411333 -8.075085 -0.261710 0.937599 21.634001 0.000000 0.000000 0.000000 -5.055540 5.336704 -3.315964 0.483912 -1.161434 31.064026 
0.050137 -0.047981 -0.002273 1.884808 -40.143504 -13.194576 0.000000 0.000000 0.000000 -0.320188 0.171340 8.080313 -0.789725 0.122170 16.269014 0.000000 0.000000 0.000000 -0.782164 0.053301 16.269185 0.946120 7.370404 0.175728 -0.782164 0.053301 16.269185 4.141800 -2.809234 -37.259267 -53.931155 -38.601967 -19.046797 -0.000014 -66.134160 -0.000024 -0.782164 0.053301 16.269185 -2.530904 -13.284412 -39.739678 97.693250 37.929218 63.246837 -179.999917 81.695198 179.999821 0.000000 0.000000 0.000000 16.945373 47.592988 -10.020287 -0.137126 1.227149 22.156981 0.000000 0.000000 0.000000 -5.230114 5.389895 -4.851052 0.480766 -1.150111 31.660206 
0.282739 -0.117065 -0.104428 1.885286 -40.491966 -11.728446 0.000000 0.000000 0.000000 -0.520173 0.511869 8.458039 -0.822030 0.206340 15.876864 0.000000 0.000000 0.000000 -0.811617 0.143428 15.876402 1.189037 7.182094 -0.154020 -0.811617 0.143428 15.876402 4.059606 -2.622767 -35.907321 -54.661143 -38.197865 -20.613143 0.000030 -67.886090 -0.000016 -0.811617 0.143428 15.876402 -3.238132 -13.340877 -38.355191 97.728969 39.468408 62.842850 179.999984 81.961992 179.999703 0.000000 0.000000 0.000000 15.115364 47.809238 -12.820372 0.101489 1.767132 22.868027 0.000000 0.000000 0.000000 -5.457284 5.452306 -7.144526 0.565287 -0.995099 32.518565 
0.725761 -0.157783 -0.345170 1.641416 -41.029956 -9.661619 0.000000 0.000000 0.000000 -0.665287 0.877099 9.265953 -0.837614 0.329530 15.323499 0.000000 0.000000 0.000000 -0.826737 0.274620 15.322734 1.571848 6.946259 -0.494144 -0.826737 0.274620 15.322734 3.923583 -2.330436 -33.819090 -55.233449 -37.914756 -22.028929 0.000020 -70.091866 -0.000020 -0.826737 0.274620 15.322734 -3.837236 -13.113817 -36.173151 97.122306 41.679584 61.869524 -179.999640 82.195665 -179.999671 0.000000 0.000000 0.000000 12.765496 48.007355 -16.475321 0.447371 2.544300 23.407030 0.000000 0.000000 0.000000 -5.604273 5.473080 -10.129068 0.737225 -0.718210 33.287001 
1.385917 -0.163040 -0.718234 1.133012 -41.870102 -6.920168 0.000000 0.000000 0.000000 -0.773355 1.244595 10.543788 -0.848264 0.504122 14.703398 0.000000 0.000000 0.000000 -0.842486 0.457973 14.702216 1.977055 6.684391 -0.806764 -0.842486 0.457973 14.702216 3.732406 -1.945544 -31.129203 -55.807078 -37.930787 -23.033942 -0.000043 -72.729569 0.000063 -0.842486 0.457973 14.702216 -4.217477 -12.634965 -33.330599 95.739469 44.205500 60.246797 -179.999889 81.948863 -179.999783 0.000000 0.000000 0.000000 9.913568 48.116141 -20.966567 0.946824 3.679961 23.680310 0.000000 0.000000 0.000000 -5.669139 5.456891 -13.839672 1.060077 -0.232039 33.858788 
2.276583 -0.212143 -1.198564 0.484174 -43.199737 -3.601806 0.000000 0.000000 0.000000 -0.987764 1.603283 12.288288 -0.894438 0.724688 14.110179 0.000000 0.000000 0.000000 -0.901767 0.687357 14.107407 2.316018 6.441921 -1.052149 -0.901767 0.687357 14.107407 3.485571 -1.480638 -27.972783 -56.423597 -38.185972 -23.536860 0.000003 -75.726867 -0.000029 -0.901767 0.687357 14.107407 -4.474963 -11.996947 -29.984764 93.600416 46.923256 57.998584 179.999895 80.974919 179.999839 0.000000 0.000000 0.000000 6.623768 48.076361 -26.347102 1.701302 5.327776 24.131266 0.000000 0.000000 0.000000 -5.775720 5.450767 -18.445177 1.637887 0.599885 34.569343 
3.401537 -0.436042 -1.803354 -0.238469 -44.991278 0.196326 0.000000 0.000000 0.000000 -1.474971 1.814865 14.536105 -1.026369 0.934873 13.613168 0.000000 0.000000 0.000000 -1.056491 0.906413 13.606542 2.631941 6.271993 -1.364960 -1.056491 0.906413 13.606542 3.185286 -0.948484 -24.485183 -57.025890 -38.488135 -23.765499 0.000158 -79.090988 -0.000156 -1.056491 0.906413 13.606542 -4.773725 -11.373269 -26.287077 90.956344 49.954021 55.370256 -179.999982 79.440299 179.999939 0.000000 0.000000 0.000000 2.949155 47.854127 -32.867515 2.798316 7.381456 25.452017 0.000000 0.000000 0.000000 -5.970420 5.466916 -24.143190 2.490066 1.722414 35.936569 
4.703206 -0.915374 -2.593661 -1.168539 -46.846694 4.638155 0.000000 0.000000 0.000000 -2.215441 1.666359 17.237222 -1.261363 1.060553 13.206764 0.000000 0.000000 0.000000 -1.324521 1.039874 13.193700 2.989544 6.192121 -2.083165 -1.324521 1.039874 13.193700 2.837638 -0.363094 -20.801441 -57.611246 -38.683033 -24.000233 0.000100 -82.918502 -0.000110 -1.324521 1.039874 13.193700 -5.270699 -11.094922 -22.372787 88.284852 53.301804 52.740944 -179.999839 77.743749 -179.999873 0.000000 0.000000 0.000000 -1.196204 47.358531 -40.886115 4.050364 9.126136 27.766410 0.000000 0.000000 0.000000 -6.096574 5.464065 -30.999398 3.455329 2.789725 38.083487 
6.068062 -1.665245 -3.547318 -2.462895 -48.296685 10.096233 0.000000 0.000000 0.000000 -3.032755 0.980356 20.008912 -1.574301 1.049457 12.773202 0.000000 0.000000 0.000000 -1.678775 1.033359 12.750948 3.360216 6.198986 -3.486150 -1.678775 1.033359 12.750948 2.453129 0.259131 -17.055858 -58.425328 -38.754329 -24.097249 -0.001000 -87.075473 0.000997 -1.678775 1.033359 12.750948 -5.931431 -11.326571 -18.373344 85.650884 56.639790 50.161399 -179.999980 76.131415 -179.999987 0.000000 0.000000 0.000000 -6.075788 46.328153 -50.732393 4.530014 8.978130 30.581679 0.000000 0.000000 0.000000 -6.035183 5.425309 -39.008556 4.274580 3.444466 40.744001 
7.347193 -2.744201 -4.506159 -4.135035 -49.249037 16.724076 0.000000 0.000000 0.000000 -3.853823 -0.231904 22.259556 -1.952783 0.912091 12.154038 0.000000 0.000000 0.000000 -2.103178 0.896271 12.118099 3.774432 6.278452 -5.556076 -2.103178 0.896271 12.118099 2.046675 0.898406 -13.381298 -59.899334 -38.659582 -23.490558 -179.995942 -88.725750 179.995877 -2.103178 0.896271 12.118099 -6.362707 -11.600519 -14.441787 81.962899 59.398085 46.726582 179.999882 74.456741 179.999869 0.000000 0.000000 0.000000 -11.217292 44.668416 -62.093299 5.063244 8.659447 34.136129 0.000000 0.000000 0.000000 -5.835234 5.380543 -48.147475 4.885698 3.658234 43.918183 
8.444519 -4.291809 -5.262812 -6.286781 -50.038925 24.074040 0.000000 0.000000 0.000000 -4.691994 -1.614925 23.899324 -2.380348 0.740820 11.344379 0.000000 0.000000 0.000000 -2.577810 0.721306 11.288133 4.335404 6.412896 -8.071383 -2.577810 0.721306 11.288133 1.637067 1.530854 -9.908758 -62.328445 -38.178777 -21.799229 -179.999771 -84.726743 179.999860 -2.577810 0.721306 11.288133 -6.166551 -11.189296 -10.748207 75.924149 61.047264 41.306668 179.999955 72.484994 179.999941 0.000000 0.000000 0.000000 -15.698643 42.698471 -74.170186 5.795524 8.159068 39.238502 0.000000 0.000000 0.000000 -5.432171 5.375213 -57.943901 5.617777 3.742826 48.040407 
9.372761 -6.386505 -5.667181 -9.123242 -50.948001 31.120376 0.000000 0.000000 0.000000 -5.468934 -2.694551 25.745337 -2.794287 0.627347 10.604629 0.000000 0.000000 0.000000 -3.037103 0.596669 10.524564 4.844646 6.609360 -11.063516 -3.037103 0.596669 10.524564 1.246019 2.128355 -6.767108 -65.453879 -37.163316 -19.582310 179.999862 -80.924567 -179.999860 -3.037103 0.596669 10.524564 -5.596720 -10.257350 -7.419016 68.720110 61.547452 34.947291 -179.999934 70.285516 -179.999945 0.000000 0.000000 0.000000 -18.606787 41.231672 -85.628361 6.743112 7.375095 46.329563 0.000000 0.000000 0.000000 -4.591638 5.465392 -67.208229 6.909242 3.932647 53.422445 
10.148871 -8.937934 -5.626259 -12.316718 -51.886405 36.784802 0.000000 0.000000 0.000000 -6.024319 -3.199621 28.566790 -3.118537 0.610618 10.226454 0.000000 0.000000 0.000000 -3.402755 0.555455 10.125905 4.863667 6.790247 -14.642518 -3.402755 0.555455 10.125905 0.897198 2.658890 -4.083162 -68.753894 -36.224832 -17.570375 179.999989 -77.423679 179.999999 -3.402755 0.555455 10.125905 -5.497854 -9.808940 -4.565152 63.631004 61.073101 30.262570 179.999994 67.830954 179.999975 0.000000 0.000000 0.000000 -20.077256 40.744115 -95.418749 7.739258 6.296399 54.808293 0.000000 0.000000 0.000000 -3.557845 5.601963 -74.890102 8.316288 3.741101 59.847736 
10.733891 -11.733497 -5.090294 -14.845732 -52.731566 40.440405 0.000000 0.000000 0.000000 -6.283962 -3.192473 31.993298 -3.309124 0.690283 10.194488 0.000000 0.000000 0.000000 -3.629964 0.601499 10.080738 4.389287 6.765853 -18.009655 -3.629964 0.601499 10.080738 0.615026 3.087687 -1.982087 -72.236366 -35.927485 -15.615294 179.999943 -74.656578 -179.999946 -3.629964 0.601499 10.080738 -6.101125 -9.823243 -2.309889 62.035152 59.148947 28.108789 -179.999995 64.966446 -179.999978 0.000000 0.000000 0.000000 -21.223848 40.909273 -103.337938 8.576366 5.029783 63.599021 0.000000 0.000000 0.000000 -3.290114 5.620826 -80.858139 8.679231 2.712737 66.696721 
11.104843 -14.501792 -4.103962 -15.956196 -53.633151 41.924100 0.000000 0.000000 0.000000 -6.398679 -3.027554 35.039841 -3.395056 0.802095 10.278364 0.000000 0.000000 0.000000 -3.747568 0.682754 10.156344 3.739584 6.525997 -20.056765 -3.747568 0.682754 10.156344 0.423575 3.378856 -0.588278 -75.962124 -35.664666 -13.946064 179.999996 -72.939052 -179.999997 -3.747568 0.682754 10.156344 -6.346920 -9.034220 -0.799115 62.147213 55.824688 27.381691 -179.999952 62.455108 179.999993 0.000000 0.000000 0.000000 -22.869678 41.324333 -109.398470 9.154306 3.735557 71.841263 0.000000 0.000000 0.000000 -4.451072 5.585858 -85.230893 8.814481 1.650357 73.407255 
11.289412 -16.964492 -2.778137 -15.719696 -54.648249 41.319471 0.000000 0.000000 0.000000 -6.442742 -2.856043 37.256931 -3.397722 0.907145 10.420468 0.000000 0.000000 0.000000 -3.774385 0.767344 10.294891 2.957892 6.057458 -20.581051 -3.774385 0.767344 10.294891 0.345512 3.497714 -0.026643 -79.590728 -35.219891 -13.321970 179.999895 -72.569834 -179.999896 -3.774385 0.767344 10.294891 -5.483399 -7.474998 -0.195146 62.476680 52.625883 27.486877 -179.999970 61.446864 -179.999999 0.000000 0.000000 0.000000 -24.820119 42.016717 -113.251612 9.483866 2.552709 79.021504 0.000000 0.000000 0.000000 -6.929816 5.619391 -87.703152 8.768190 0.720496 79.313904 
